<?xml version="1.0" standalone="no"?>
<!DOCTYPE svg PUBLIC "-//W3C//DTD SVG 20010904//EN"
 "http://www.w3.org/TR/2001/REC-SVG-20010904/DTD/svg10.dtd">
<svg version="1.0" xmlns="http://www.w3.org/2000/svg"
 width="100.000000pt" height="100.000000pt" viewBox="0 0 100.000000 100.000000"
 preserveAspectRatio="xMidYMid meet">
<metadata>
Created by potrace 1.14, written by Peter Selinger 2001-2017
</metadata>
<g transform="translate(0.000000,100.000000) scale(0.100000,-0.100000)"
fill="#000000" stroke="none">
<path d="M279 917 c-32 -16 -50 -35 -66 -67 -24 -49 -26 -52 -72 -94 -63 -57
-78 -142 -37 -218 l23 -44 -20 -28 c-11 -15 -22 -50 -25 -76 -5 -59 25 -120
75 -151 23 -14 34 -30 39 -56 8 -44 62 -99 111 -112 58 -16 95 -13 146 13 l47
23 48 -24 c97 -50 214 -10 248 85 12 33 28 56 49 70 48 31 79 102 71 160 -3
26 -16 60 -27 76 l-21 28 23 32 c18 23 23 44 24 87 0 67 -22 114 -72 149 -19
14 -43 44 -53 66 -42 94 -149 129 -242 81 l-48 -24 -47 23 c-59 31 -117 31
-174 1z m130 -68 c19 -7 36 -22 42 -36 14 -38 11 -614 -4 -634 -32 -42 -99
-51 -141 -18 -33 26 -33 44 0 45 34 2 36 6 29 48 -5 24 -12 35 -24 34 -62 -5
-94 3 -123 32 -26 26 -30 36 -25 66 8 47 24 66 46 55 9 -5 39 -12 67 -15 l51
-7 0 40 c0 38 -1 40 -38 46 -47 8 -99 42 -117 75 -16 31 -9 86 15 112 17 19
17 19 33 -1 l15 -21 29 23 c27 22 28 26 18 56 -13 38 -3 72 30 95 27 19 53 20
97 5z m273 -3 c23 -17 40 -64 32 -90 -3 -11 -19 -38 -36 -59 l-30 -38 28 -26
28 -26 31 35 c18 19 37 43 44 54 11 18 12 18 31 -5 43 -51 35 -108 -20 -139
-24 -14 -30 -24 -30 -52 0 -29 5 -37 32 -50 51 -24 61 -85 23 -135 -15 -18
-17 -17 -58 30 l-43 48 -26 -28 -26 -28 29 -37 c42 -52 45 -95 9 -131 -16 -16
-39 -29 -53 -29 -43 0 -88 22 -98 47 -11 29 -12 613 -1 630 12 18 64 43 92 43
14 -1 33 -6 42 -14z"/>
</g>
</svg>
